HIERARCHY
ROOT Hips
{
	OFFSET -3.958830 18.904000 13.208200
	CHANNELS 6 Xposition Yposition Zposition Zrotation Yrotation Xrotation 
	JOINT LHipJoint
	{
		OFFSET 0.000000 0.000000 0.000000
		CHANNELS 3 Zrotation Yrotation Xrotation
		JOINT LeftUpLeg
		{
			OFFSET 1.800000 -1.400000 0.085000
			CHANNELS 3 Zrotation Yrotation Xrotation
			JOINT LeftLeg
			{
				OFFSET 2.215000 -6.000000 0.000000
				CHANNELS 3 Zrotation Yrotation Xrotation
				JOINT LeftFoot
				{
					OFFSET 2.500000 -6.900000 0.000000
					CHANNELS 3 Zrotation Yrotation Xrotation
					JOINT LeftToeBase
					{
						OFFSET 0.200000 -0.500000 1.950000
						CHANNELS 3 Zrotation Yrotation Xrotation
						End Site
						{
							OFFSET 0.000000 0.000000 0.000000
						}
					}
				}
			}
		}
	}
	JOINT RHipJoint
	{
		OFFSET 0.000000 0.000000 0.000000
		CHANNELS 3 Zrotation Yrotation Xrotation
		JOINT RightUpLeg
		{
			OFFSET -1.800000 -1.400000 0.085000
			CHANNELS 3 Zrotation Yrotation Xrotation
			JOINT RightLeg
			{
				OFFSET -2.215000 -6.000000 0.000000
				CHANNELS 3 Zrotation Yrotation Xrotation
				JOINT RightFoot
				{
					OFFSET -2.500000 -6.900000 0.000000
					CHANNELS 3 Zrotation Yrotation Xrotation
					JOINT RightToeBase
					{
						OFFSET -0.200000 -0.500000 1.950000
						CHANNELS 3 Zrotation Yrotation Xrotation
						End Site
						{
							OFFSET 0.000000 0.000000 0.000000
						}
					}
				}
			}
		}
	}
	JOINT LowerBack
	{
		OFFSET 0.000000 0.000000 0.000000
		CHANNELS 3 Zrotation Yrotation Xrotation
		JOINT Spine
		{
			OFFSET -0.087000 1.940000 -0.288900
			CHANNELS 3 Zrotation Yrotation Xrotation
			JOINT Spine1
			{
				OFFSET 0.000000 1.950000 0.060000
				CHANNELS 3 Zrotation Yrotation Xrotation
				JOINT Neck
				{
					OFFSET 0.000000 0.000000 0.000000
					CHANNELS 3 Zrotation Yrotation Xrotation
					JOINT Neck1
					{
						OFFSET 0.000000 1.600000 0.340000
						CHANNELS 3 Zrotation Yrotation Xrotation
						JOINT Head
						{
							OFFSET 0.000000 1.667000 -0.240000
							CHANNELS 3 Zrotation Yrotation Xrotation
							End Site
							{
								OFFSET 0.000000 0.000000 0.000000
							}
						}
					}
				}
				JOINT LeftShoulder
				{
					OFFSET 0.000000 0.000000 0.000000
					CHANNELS 3 Zrotation Yrotation Xrotation
					JOINT LeftArm
					{
						OFFSET 2.700000 1.550000 -0.730000
						CHANNELS 3 Zrotation Yrotation Xrotation
						JOINT LeftForeArm
						{
							OFFSET 5.450000 0.000000 0.000000
							CHANNELS 3 Zrotation Yrotation Xrotation
							JOINT LeftHand
							{
								OFFSET 3.450000 0.000000 0.000000
								CHANNELS 3 Zrotation Yrotation Xrotation
								JOINT LeftHandIndex1
								{
									OFFSET 0.750000 0.000000 0.000000
									CHANNELS 3 Zrotation Yrotation Xrotation
									End Site
									{
										OFFSET 0.000000 0.000000 0.000000
									}
								}
							}
						}
					}
				}
				JOINT RightShoulder
				{
					OFFSET 0.000000 0.000000 0.000000
					CHANNELS 3 Zrotation Yrotation Xrotation
					JOINT RightArm
					{
						OFFSET -2.700000 1.550000 -0.730000
						CHANNELS 3 Zrotation Yrotation Xrotation
						JOINT RightForeArm
						{
							OFFSET -5.450000 0.000000 0.000000
							CHANNELS 3 Zrotation Yrotation Xrotation
							JOINT RightHand
							{
								OFFSET -3.450000 0.000000 0.000000
								CHANNELS 3 Zrotation Yrotation Xrotation
								JOINT RightHandIndex1
								{
									OFFSET -0.750000 0.000000 0.000000
									CHANNELS 3 Zrotation Yrotation Xrotation
									End Site
									{
										OFFSET 0.000000 0.000000 0.000000
									}
								}
							}
						}
					}
				}
			}
		}
	}
}
MOTION
Frames: 9
Frame Time: 0.016667
0.306140 17.338420 -2.373070 -3.303199 5.076172 9.777024 -15.398668 12.468481 2.965497 -1.626262 -1.099212 -8.394403 -7.672577 3.233779 -1.152909 -0.917211 4.925393 3.573963 -0.134380 -0.597700 -0.385070 18.197103 -10.169921 2.659824 -24.189952 0.833184 -16.884975 0.593767 -3.578847 -0.715210 -0.222611 -4.428433 2.752813 0.021860 1.654000 1.041890 -3.236230 -1.481661 -6.841391 0.557517 -0.110837 -0.509002 4.983063 -1.134025 5.225640 1.100518 2.641620 -7.736586 4.476436 5.329658 19.165944 -5.643710 5.445850 -1.082180 -14.082426 -6.039442 2.987035 -55.127360 -8.598279 1.976684 -27.722825 -17.958595 1.482456 -4.886540 2.918761 0.483460 1.145840 -0.316490 0.590340 12.891328 4.524057 2.849020 55.458037 8.895033 -1.989475 26.096282 24.565352 2.826536 1.684151 -1.635430 -0.647490 0.517640 0.445800 0.121510 
0.303180 17.343470 -2.371700 -3.324495 5.073472 9.553096 -15.403040 12.492178 2.962580 -1.598760 -1.072081 -8.289809 -7.526770 3.257367 -0.960029 -0.921374 4.921033 3.574977 -0.148560 -0.625880 -0.370950 18.186155 -10.189635 2.655640 -24.213600 0.806376 -16.621376 0.615577 -3.627743 -0.636485 -0.228935 -4.422656 2.758584 -0.000930 1.638570 1.033540 -3.214760 -1.493179 -6.851947 0.484300 -0.087353 -0.357009 4.986752 -1.109955 5.292569 1.181074 2.701993 -7.853363 4.554522 5.213116 19.748737 -5.881610 5.602740 -1.259890 -14.260141 -6.425389 3.122436 -54.770548 -8.521784 1.861902 -27.737804 -18.032877 1.484893 -4.872955 2.887924 0.513020 1.129410 -0.303800 0.576500 12.912679 4.886810 2.996426 55.477203 8.975600 -2.084159 25.696091 24.447198 2.760083 1.692961 -1.599758 -0.658020 0.522270 0.450490 0.106270 
0.298390 17.347880 -2.369950 -3.338508 5.109899 9.338934 -15.408992 12.520018 2.961427 -1.516273 -1.042898 -8.180379 -7.437187 3.286070 -0.781690 -0.923111 4.917079 3.572513 -0.155380 -0.642380 -0.359060 18.173611 -10.206381 2.649066 -24.195552 0.775850 -16.399358 0.655807 -3.670329 -0.533135 -0.235836 -4.409485 2.766708 -0.017740 1.619040 1.023540 -3.188634 -1.517770 -6.862486 0.369651 -0.063195 -0.200893 5.015515 -1.083420 5.351717 1.240199 2.733765 -7.962575 4.581289 5.095419 20.312082 -5.995580 5.665170 -1.517370 -14.409912 -6.770788 3.231441 -54.436276 -8.488186 1.782205 -27.800167 -18.049750 1.488191 -4.853715 2.864646 0.540450 1.109050 -0.290150 0.565560 12.950759 5.226836 3.154645 55.333597 8.948324 -2.204659 25.723015 24.457456 2.789582 1.699458 -1.572042 -0.663880 0.525710 0.452640 0.093460 
0.293830 17.350230 -2.368980 -3.415519 5.144009 9.192994 -15.410214 12.544110 2.956425 -1.398365 -1.034410 -8.140932 -7.280676 3.294465 -0.616277 -0.935196 4.912767 3.573131 -0.157790 -0.652890 -0.348060 18.166663 -10.225766 2.642442 -24.164942 0.748417 -16.329665 0.789556 -3.719195 -0.343726 -0.238232 -4.396230 2.772079 -0.025140 1.609040 1.017060 -3.177461 -1.528544 -6.865181 0.404228 -0.042551 -0.086144 4.987354 -1.060190 5.390043 1.293743 2.736605 -8.019561 4.570954 5.013883 20.632968 -6.119750 5.699500 -1.742530 -14.464252 -6.954707 3.273734 -54.213927 -8.513546 1.762741 -27.838240 -18.045238 1.486044 -4.842044 2.844617 0.563340 1.097280 -0.281090 0.560200 12.899802 5.409096 3.252858 55.278458 8.925929 -2.284080 25.755154 24.469415 2.807047 1.700534 -1.553844 -0.673610 0.532250 0.452880 0.083320 
0.288900 17.350480 -2.367420 -3.457794 5.162204 9.129380 -15.411606 12.561135 2.948818 -1.403847 -1.034022 -8.132370 -6.996778 3.270653 -0.507509 -0.945944 4.899620 3.578275 -0.163040 -0.662210 -0.348170 18.162989 -10.233141 2.642015 -24.151943 0.739105 -16.326692 0.896849 -3.744865 -0.251107 -0.237040 -4.391231 2.771584 -0.029650 1.610880 1.015860 -3.170681 -1.542702 -6.861838 0.351695 -0.006867 -0.045086 5.026197 -1.025958 5.409644 1.285484 2.740230 -8.036462 4.568853 4.997748 20.727415 -6.108580 5.680480 -1.802800 -14.408876 -6.993669 3.272858 -54.026352 -8.563601 1.805300 -28.081269 -18.052755 1.527042 -4.842616 2.839868 0.570670 1.095180 -0.281090 0.556650 12.864906 5.443006 3.290282 55.166926 8.870243 -2.319908 26.028197 24.571828 2.880161 1.698673 -1.548157 -0.678810 0.537050 0.459090 0.080380 
0.282700 17.348220 -2.364700 -3.460605 5.150128 9.111623 -15.413739 12.566478 2.941959 -1.419377 -1.028853 -8.117676 -6.866434 3.258983 -0.458342 -0.947100 4.892652 3.579120 -0.163060 -0.660300 -0.351710 18.161624 -10.223437 2.649440 -24.197360 0.743520 -16.323152 0.984309 -3.749788 -0.303382 -0.238659 -4.397507 2.767109 -0.028930 1.611590 1.018240 -3.165624 -1.562327 -6.859370 0.244994 0.033290 -0.062468 5.106023 -0.989880 5.449316 1.234672 2.712000 -8.037406 4.516305 4.991197 20.698149 -6.079220 5.629080 -1.850870 -14.283124 -6.963059 3.261270 -53.959694 -8.634777 1.860064 -28.290148 -18.077233 1.570970 -4.844480 2.845654 0.568080 1.095740 -0.281110 0.556110 12.844130 5.430188 3.303111 55.054502 8.800440 -2.349503 26.362443 24.758457 2.973084 1.695545 -1.552194 -0.675510 0.536620 0.462330 0.082170 
0.276070 17.344640 -2.361730 -3.398880 5.144186 9.150721 -15.416070 12.564849 2.932406 -1.435784 -1.039442 -8.182490 -6.879925 3.273008 -0.325313 -0.946454 4.893280 3.574610 -0.161880 -0.656280 -0.360760 18.161306 -10.204790 2.662779 -24.323780 0.759874 -16.310763 1.051588 -3.744887 -0.434642 -0.239380 -4.420661 2.753901 -0.024810 1.615590 1.026260 -3.161381 -1.582669 -6.854050 0.014662 0.046177 -0.134876 5.264700 -0.982845 5.438881 1.147800 2.693409 -7.999630 4.485957 5.062929 20.560661 -5.998350 5.601910 -1.736080 -14.065420 -6.792770 3.220998 -54.039181 -8.683686 1.950755 -28.575038 -18.078818 1.624754 -4.852841 2.867326 0.555630 1.102230 -0.286640 0.557080 12.808697 5.286691 3.233548 54.928105 8.836562 -2.243287 26.652813 24.754290 3.037913 1.691891 -1.566578 -0.667920 0.528700 0.467560 0.086510 
0.270780 17.342080 -2.358120 -3.360863 5.213748 9.183015 -15.415774 12.565199 2.924558 -1.428029 -1.049429 -8.241019 -6.886963 3.283594 -0.211838 -0.940013 4.895729 3.571668 -0.161000 -0.653070 -0.372010 18.162456 -10.198269 2.665905 -24.422422 0.769913 -16.238446 1.043458 -3.743789 -0.482478 -0.239893 -4.446986 2.739845 -0.022720 1.623970 1.039040 -3.163589 -1.593499 -6.844693 -0.135313 0.017653 -0.233012 5.344994 -1.016882 5.447141 1.086246 2.694519 -7.974840 4.491160 5.122097 20.406523 -5.889320 5.551850 -1.492410 -13.778745 -6.624857 3.192286 -54.193106 -8.750540 2.039852 -28.772899 -18.114905 1.674173 -4.863409 2.895120 0.537990 1.112160 -0.293720 0.560560 12.646377 5.115497 3.168469 54.951562 8.902237 -2.118348 26.903391 24.752951 3.089702 1.689508 -1.586877 -0.656530 0.517210 0.472060 0.094710 
0.265170 17.339310 -2.354970 -3.370725 5.237873 9.230163 -15.412013 12.559903 2.917926 -1.374423 -1.064182 -8.288568 -6.899771 3.279217 -0.199599 -0.933992 4.908934 3.569117 -0.161040 -0.652390 -0.394500 18.167795 -10.191042 2.669130 -24.473090 0.794112 -16.191616 1.027583 -3.732420 -0.552795 -0.237595 -4.476787 2.726926 -0.018610 1.645170 1.055550 -3.176686 -1.595901 -6.835160 -0.165294 -0.025729 -0.349960 5.377569 -1.061149 5.455243 0.979308 2.635684 -7.938264 4.399058 5.289058 20.165952 -5.575280 5.411960 -1.110700 -13.472047 -6.456602 3.168629 -54.390175 -8.796960 2.132624 -28.922938 -18.091036 1.691482 -4.878913 2.929160 0.516530 1.128080 -0.307930 0.571280 12.550389 4.975575 3.083245 54.834461 9.003081 -1.938614 27.145090 24.586255 3.114082 1.684075 -1.611676 -0.647090 0.508040 0.479990 0.108330 
